<svg xmlns="http://www.w3.org/2000/svg" width="1600" height="900" viewBox="0 0 1600 900">
  <defs>
    <linearGradient id="g1" x1="0" x2="1">
      <stop offset="0%" stop-color="#f0f9ff"/>
      <stop offset="100%" stop-color="#ecfeff"/>
    </linearGradient>
    <linearGradient id="g2" x1="0" x2="1">
      <stop offset="0%" stop-color="#7c3aed"/>
      <stop offset="100%" stop-color="#06b6d4"/>
    </linearGradient>
  </defs>
  <rect width="100%" height="100%" fill="url(#g1)"/>

  <!-- Left headline block -->
  <g transform="translate(80,120)">
    <text x="0" y="0" font-family="Inter, Arial, sans-serif" font-size="64" font-weight="700" fill="#0f172a">Social media</text>
    <text x="0" y="80" font-family="Inter, Arial, sans-serif" font-size="64" font-weight="700" fill="#0f172a">automation for</text>
    <text x="0" y="160" font-family="Inter, Arial, sans-serif" font-size="72" font-weight="800" fill="url(#g2)">agencies and</text>
    <text x="0" y="240" font-family="Inter, Arial, sans-serif" font-size="96" font-weight="900" fill="#4f46e5">SuiteGenie</text>

    <rect x="0" y="280" width="420" height="56" rx="12" fill="#eef2ff"/>
    <text x="24" y="320" font-family="Inter, Arial, sans-serif" font-size="18" fill="#0f172a">Automate your content, not your creativity</text>
  </g>

  <!-- Mock dashboard on right -->
  <g transform="translate(920,160)">
    <rect x="0" y="0" width="560" height="320" rx="16" fill="#ffffff" opacity="0.95" stroke="#e6edf3"/>
    <rect x="20" y="20" width="200" height="28" rx="8" fill="#07b6d4"/>
    <text x="24" y="40" font-family="Inter, Arial, sans-serif" font-size="14" fill="#ffffff">SuiteGenie Dashboard</text>

    <rect x="20" y="64" width="520" height="36" rx="8" fill="#f8fafc"/>
    <rect x="24" y="70" width="180" height="20" rx="6" fill="#eef2ff"/>
    <rect x="220" y="70" width="260" height="20" rx="6" fill="#f1f5f9"/>

    <rect x="20" y="112" width="520" height="28" rx="6" fill="#f8fafc"/>
    <rect x="24" y="118" width="420" height="12" rx="6" fill="url(#g2)"/>

    <circle cx="520" cy="44" r="8" fill="#10b981"/>
    <text x="440" y="48" font-family="Inter, Arial, sans-serif" font-size="12" fill="#0f172a">Live</text>

    <rect x="20" y="156" width="160" height="90" rx="8" fill="#fafafa" stroke="#eceff3"/>
    <rect x="196" y="156" width="160" height="90" rx="8" fill="#fafafa" stroke="#eceff3"/>
    <rect x="372" y="156" width="160" height="90" rx="8" fill="#fafafa" stroke="#eceff3"/>
  </g>

  <!-- Footer note -->
  <text x="80" y="820" font-family="Inter, Arial, sans-serif" font-size="12" fill="#94a3b8">Placeholder hero image: replace with real SuiteGenie screenshot (suitegenie_main.jpeg)</text>
</svg>